# File produced by Open Asset Import Library (http://www.assimp.sf.net)
# (assimp v3.1.187496374)

mtllib Eruption.obj.mtl

# 96 vertex positions
v  -0.103528 0.5 0.38637
v  1.31492e-16 -0.5 0.4
v  -0.103528 -0.5 0.38637
v  1.31492e-16 0.5 0.4
v  -0.2 0.5 0.34641
v  0.103528 -0.5 0.38637
v  0.103528 0.5 0.38637
v  0.2 -0.5 0.34641
v  0.2 0.5 0.34641
v  0.282843 -0.5 0.282843
v  0.282843 0.5 0.282843
v  0.34641 0.5 0.2
v  0.34641 -0.5 0.2
v  0.38637 0.5 0.103528
v  0.38637 -0.5 0.103528
v  0.4 0.5 7.34788e-17
v  0.4 -0.5 7.34788e-17
v  0.38637 0.5 -0.103528
v  0.38637 -0.5 -0.103528
v  0.34641 0.5 -0.2
v  0.34641 -0.5 -0.2
v  0.282843 0.5 -0.282843
v  0.282843 -0.5 -0.282843
v  0.2 -0.5 -0.34641
v  0.2 0.5 -0.34641
v  0.103528 -0.5 -0.38637
v  0.103528 0.5 -0.38637
v  1.80478e-16 -0.5 -0.4
v  1.80478e-16 0.5 -0.4
v  -0.103528 -0.5 -0.38637
v  -0.103528 0.5 -0.38637
v  -0.2 -0.5 -0.34641
v  -0.2 0.5 -0.34641
v  -0.282843 -0.5 -0.282843
v  -0.282843 0.5 -0.282843
v  -0.34641 0.5 -0.2
v  -0.34641 -0.5 -0.2
v  -0.38637 0.5 -0.103528
v  -0.38637 -0.5 -0.103528
v  -0.4 0.5 -2.44929e-17
v  -0.4 -0.5 -2.44929e-17
v  -0.38637 0.5 0.103528
v  -0.38637 -0.5 0.103528
v  -0.34641 0.5 0.2
v  -0.34641 -0.5 0.2
v  -0.282843 0.5 0.282843
v  -0.282843 -0.5 0.282843
v  -0.2 -0.5 0.34641
v  -0.482963 0.5 0.12941
v  -0.482963 0.5 -0.12941
v  -0.5 0.5 -3.06162e-17
v  -0.433013 0.5 0.25
v  -0.433013 0.5 -0.25
v  -0.353553 0.5 0.353553
v  -0.353553 0.5 -0.353553
v  -0.25 0.5 0.433013
v  -0.25 0.5 -0.433013
v  -0.12941 0.5 -0.482963
v  1.80478e-16 0.5 -0.5
v  0.12941 0.5 -0.482963
v  0.25 0.5 -0.433013
v  0.353553 0.5 -0.353553
v  0.433013 0.5 -0.25
v  0.433013 0.5 0.25
v  0.482963 0.5 0.12941
v  0.482963 0.5 -0.12941
v  0.353553 0.5 0.353553
v  0.25 0.5 0.433013
v  0.12941 0.5 0.482963
v  1.80478e-16 0.5 0.5
v  -0.12941 0.5 0.482963
v  0.5 0.5 9.18485e-17
v  1.80478e-16 -0.5 0.5
v  0.12941 -0.5 0.482963
v  -0.12941 -0.5 0.482963
v  -0.25 -0.5 0.433013
v  -0.353553 -0.5 0.353553
v  -0.433013 -0.5 0.25
v  -0.482963 -0.5 0.12941
v  -0.5 -0.5 -3.06162e-17
v  -0.482963 -0.5 -0.12941
v  -0.433013 -0.5 -0.25
v  -0.353553 -0.5 -0.353553
v  -0.25 -0.5 -0.433013
v  -0.12941 -0.5 -0.482963
v  1.80478e-16 -0.5 -0.5
v  0.12941 -0.5 -0.482963
v  0.25 -0.5 -0.433013
v  0.353553 -0.5 -0.353553
v  0.433013 -0.5 -0.25
v  0.482963 -0.5 -0.12941
v  0.5 -0.5 9.18485e-17
v  0.482963 -0.5 0.12941
v  0.433013 -0.5 0.25
v  0.353553 -0.5 0.353553
v  0.25 -0.5 0.433013

# 0 UV coordinates

# 30 vertex normals
vn 0.006574 0 -0.0245345
vn 8.14832e-18 0 -0.0254
vn 0.0127 0 -0.021997
vn -0.006574 0 -0.0245345
vn -0.0127 0 -0.021997
vn -0.0179605 0 -0.0179605
vn -0.021997 0 -0.0127
vn -0.0245345 0 -0.006574
vn -0.0254 0 -1.06381e-17
vn -0.0245345 0 0.006574
vn -0.021997 0 0.0127
vn -0.0179605 0 0.0179605
vn -0.0127 0 0.021997
vn -0.006574 0 0.0245345
vn -5.8849e-18 0 0.0254
vn 0.006574 0 0.0245345
vn 0.0127 0 0.021997
vn 0.0179605 0 0.0179605
vn 0.021997 0 0.0127
vn 0.0245345 0 0.006574
vn 0.0254 0 4.07416e-18
vn 0.0245345 0 -0.006574
vn 0.021997 0 -0.0127
vn 0.0179605 0 -0.0179605
vn 0 0.0254 0
vn -4.52684e-18 0 0.0254
vn -0.0254 0 -6.79027e-18
vn 1.24488e-17 0 -0.0254
vn 0.0254 0 1.19961e-17
vn 0 -0.0254 0

# Mesh 'SketchUp' with 192 faces
g SketchUp
usemtl ID4
f  1//1 2//2 3//1
f  2//2 1//1 4//2
f  3//1 5//3 1//1
f  4//2 6//4 2//2
f  6//4 4//2 7//4
f  7//4 8//5 6//4
f  8//5 7//4 9//5
f  9//5 10//6 8//5
f  10//6 9//5 11//6
f  12//7 10//6 11//6
f  10//6 12//7 13//7
f  14//8 13//7 12//7
f  13//7 14//8 15//8
f  16//9 15//8 14//8
f  15//8 16//9 17//9
f  18//10 17//9 16//9
f  17//9 18//10 19//10
f  20//11 19//10 18//10
f  19//10 20//11 21//11
f  22//12 21//11 20//11
f  21//11 22//12 23//12
f  22//12 24//13 23//12
f  24//13 22//12 25//13
f  25//13 26//14 24//13
f  26//14 25//13 27//14
f  27//14 28//15 26//14
f  28//15 27//14 29//15
f  29//15 30//16 28//15
f  30//16 29//15 31//16
f  31//16 32//17 30//16
f  32//17 31//16 33//17
f  33//17 34//18 32//17
f  34//18 33//17 35//18
f  34//18 36//19 37//19
f  36//19 34//18 35//18
f  38//20 37//19 36//19
f  37//19 38//20 39//20
f  40//21 39//20 38//20
f  39//20 40//21 41//21
f  42//22 41//21 40//21
f  41//21 42//22 43//22
f  44//23 43//22 42//22
f  43//22 44//23 45//23
f  46//24 45//23 44//23
f  45//23 46//24 47//24
f  46//24 48//3 47//24
f  48//3 46//24 5//3
f  5//3 3//1 48//3
f  49//25 50//25 51//25
f  50//25 49//25 52//25
f  50//25 52//25 53//25
f  53//25 52//25 54//25
f  53//25 54//25 40//25
f  40//25 55//25 53//25
f  40//25 54//25 42//25
f  42//25 54//25 44//25
f  44//25 54//25 56//25
f  55//25 40//25 38//25
f  55//25 38//25 36//25
f  55//25 36//25 57//25
f  57//25 36//25 35//25
f  57//25 35//25 33//25
f  57//25 33//25 58//25
f  58//25 33//25 31//25
f  58//25 31//25 59//25
f  59//25 31//25 29//25
f  59//25 29//25 27//25
f  59//25 27//25 60//25
f  60//25 27//25 25//25
f  60//25 25//25 61//25
f  61//25 25//25 22//25
f  61//25 22//25 62//25
f  62//25 22//25 20//25
f  62//25 20//25 18//25
f  62//25 18//25 63//25
f  63//25 18//25 16//25
f  63//25 16//25 64//25
f  63//25 64//25 65//25
f  63//25 65//25 66//25
f  14//25 64//25 16//25
f  14//25 67//25 64//25
f  12//25 67//25 14//25
f  11//25 68//25 67//25
f  11//25 67//25 12//25
f  9//25 68//25 11//25
f  9//25 69//25 68//25
f  7//25 69//25 9//25
f  7//25 70//25 69//25
f  4//25 70//25 7//25
f  1//25 71//25 70//25
f  1//25 70//25 4//25
f  5//25 71//25 1//25
f  5//25 56//25 71//25
f  46//25 56//25 5//25
f  44//25 56//25 46//25
f  66//25 65//25 72//25
f  69//16 73//26 74//16
f  73//26 69//16 70//26
f  74//16 68//17 69//16
f  70//26 75//14 73//26
f  75//14 70//26 71//14
f  71//14 76//13 75//14
f  76//13 71//14 56//13
f  56//13 77//12 76//13
f  77//12 56//13 54//12
f  52//11 77//12 54//12
f  77//12 52//11 78//11
f  49//10 78//11 52//11
f  78//11 49//10 79//10
f  51//27 79//10 49//10
f  79//10 51//27 80//27
f  50//8 80//27 51//27
f  80//27 50//8 81//8
f  53//7 81//8 50//8
f  81//8 53//7 82//7
f  55//6 82//7 53//7
f  82//7 55//6 83//6
f  55//6 84//5 83//6
f  84//5 55//6 57//5
f  57//5 85//4 84//5
f  85//4 57//5 58//4
f  58//4 86//28 85//4
f  86//28 58//4 59//28
f  59//28 87//1 86//28
f  87//1 59//28 60//1
f  60//1 88//3 87//1
f  88//3 60//1 61//3
f  61//3 89//24 88//3
f  89//24 61//3 62//24
f  89//24 63//23 90//23
f  63//23 89//24 62//24
f  66//22 90//23 63//23
f  90//23 66//22 91//22
f  72//29 91//22 66//22
f  91//22 72//29 92//29
f  65//20 92//29 72//29
f  92//29 65//20 93//20
f  64//19 93//20 65//20
f  93//20 64//19 94//19
f  67//18 94//19 64//19
f  94//19 67//18 95//18
f  67//18 96//17 95//18
f  96//17 67//18 68//17
f  68//17 74//16 96//17
f  83//30 41//30 82//30
f  41//30 83//30 39//30
f  39//30 83//30 37//30
f  37//30 83//30 84//30
f  77//30 82//30 41//30
f  77//30 41//30 43//30
f  78//30 81//30 82//30
f  78//30 82//30 77//30
f  77//30 43//30 45//30
f  77//30 45//30 76//30
f  76//30 45//30 47//30
f  76//30 47//30 48//30
f  76//30 48//30 75//30
f  75//30 48//30 3//30
f  75//30 3//30 73//30
f  73//30 3//30 2//30
f  73//30 2//30 6//30
f  73//30 6//30 74//30
f  74//30 6//30 8//30
f  74//30 8//30 96//30
f  96//30 8//30 10//30
f  96//30 10//30 95//30
f  95//30 10//30 13//30
f  95//30 13//30 15//30
f  95//30 15//30 94//30
f  94//30 15//30 17//30
f  17//30 90//30 94//30
f  94//30 90//30 93//30
f  19//30 90//30 17//30
f  19//30 89//30 90//30
f  93//30 90//30 91//30
f  93//30 91//30 92//30
f  23//30 88//30 89//30
f  23//30 89//30 21//30
f  21//30 89//30 19//30
f  24//30 88//30 23//30
f  24//30 87//30 88//30
f  26//30 87//30 24//30
f  28//30 86//30 87//30
f  28//30 87//30 26//30
f  30//30 86//30 28//30
f  30//30 85//30 86//30
f  32//30 85//30 30//30
f  32//30 84//30 85//30
f  34//30 84//30 32//30
f  37//30 84//30 34//30
f  79//30 81//30 78//30
f  81//30 79//30 80//30

